<?xml version="1.0" encoding="UTF-8"?> <!-- Generator: Adobe Illustrator 21.1.0, SVG Export Plug-In . SVG Version: 6.00 Build 0) --> <svg xmlns="http://www.w3.org/2000/svg" xmlns:xlink="http://www.w3.org/1999/xlink" id="Layer_1" x="0px" y="0px" viewBox="0 0 313.4 116" style="enable-background:new 0 0 313.4 116;" xml:space="preserve"> <g> <path d="M4.1,1.4l4.2,3.5v15.7h22.6l3.1,3.9l-3.1,3.7H8.3v15l-4.2,3.5L0,43.2V4.9L4.1,1.4z M16.3,41h17.3l2.9,3.7l-3.1,3.9H16.3 L13.5,45L16.3,41z M16.9,0.5h16.5l3.1,3.9l-3.1,3.7H17.1l-3.3-3.6L16.9,0.5z M108.7,7.9l3.7,4l-3.7,4H52.9l-3.6-4l3.6-4H108.7z M46.4,24.5l3.5-3l3.5,3v4.4c0,7.4,2,13.4,10.9,13.4H66c8,0,12.4-5.4,12.4-13.7v-4.2l3.4-3l3.5,2.9v4.6c0,7.5,2.2,13,10.8,13h1.5 c8.4,0,9.9-6.4,10-13.3v-4.5l3.4-2.8l3.6,2.9v4.5c-0.1,9.7-2.7,20.7-16.6,20.7h-1.5c-8.3,0-12.8-3.7-14.5-8.3 c-2.1,4.7-7.7,8.8-15.2,8.8h-1.8c-14.3,0-18.2-8.7-18.3-20.8V24.5z M74.9,96.6l-2-5.4l5.2-1.5L96.3,98V81l3.7-3.1l3.8,3.1v20.6 l6.8,3.1l1.9,5l-5.3,1.9L74.9,96.6z M107.3,60.2l5,2.3l-1.6,5.1L65.9,88.4l-5.4-2.1l2.2-5.2L107.3,60.2z M42.6,88.6l4.4,3.6 c-0.4,12.6-11.3,19.3-24.1,19.3h-1.3c-6.4,0-13.8-2.4-18.6-7l0.5-5.1l4.7-0.6c3.5,3,8.4,5.1,12.9,5.1h1.4c8.7,0,15.3-3.6,16-12.1 L42.6,88.6z M38.6,80.4c-0.4-8.8-7-12.2-16-12.2h-1.4c-5.4,0-9.5,2.1-12.9,5.1l-4.7-0.6L3,67.5c4.8-4.7,11.5-6.9,18.4-6.9h1.4 c12.9,0,23.8,6.6,24.2,19.4l-4.4,3.5L38.6,80.4z"></path> <path d="M156.1,14.5h-10.2c0.2,2,1.6,3.4,3.6,3.4c1.2,0,2.4-0.5,3-1.5l3.2,0.1c-1.1,2.6-3.5,3.9-6.3,3.9c-3.8,0-6.7-2.9-6.7-6.8 c0-4,2.8-6.8,6.6-6.8C152.9,6.8,156.1,9.1,156.1,14.5L156.1,14.5z M145.9,12.4h7c-0.1-1.7-1.5-3.1-3.4-3.1 C147.6,9.3,146.2,10.6,145.9,12.4"></path> <path d="M166,10.6c-1-0.9-2.4-1.4-3.4-1.4c-1.1,0-1.7,0.6-1.7,1.2c0,0.7,0.3,1.1,1.2,1.4l2.2,0.8c2.4,0.8,3.4,2.2,3.4,3.8 c0,2.1-1.6,4.1-4.8,4.1c-2.1,0-4.2-0.9-5.4-2l1.7-2.2c1,1,2.5,1.7,3.7,1.7c1.1,0,1.9-0.5,1.9-1.3c0-0.8-0.4-1.2-1.8-1.7l-2.2-0.7 c-1.8-0.6-2.8-2-2.8-3.6c0-1.9,1.6-3.8,4.7-3.8c1.5,0,3.6,0.6,4.9,1.9L166,10.6z"></path> <path d="M176.5,17.9c1.5,0,2.6-0.7,3.3-1.9l2.5,1.3c-1,1.9-3.3,3.1-5.8,3.1c-3.8,0-6.9-2.8-6.9-6.8c0-4,3-6.8,6.9-6.8 c2.5,0,4.7,1.2,5.8,3.1l-2.5,1.3c-0.7-1.2-1.8-1.9-3.3-1.9c-2.4,0-4,1.9-4,4.3C172.5,16.1,174.1,17.9,176.5,17.9"></path> <path d="M184.6,15.4V7.1h2.9V15c0,2,1.3,3,3,3c1.7,0,3-0.9,3-3V7.1h2.8v8.2c0,2.7-2.1,5-5.9,5S184.6,18.1,184.6,15.4"></path> <path d="M212.2,14.5H202c0.2,2,1.6,3.4,3.6,3.4c1.2,0,2.4-0.5,3-1.5l3.2,0.1c-1.1,2.6-3.5,3.9-6.3,3.9c-3.8,0-6.7-2.9-6.7-6.8 c0-4,2.8-6.8,6.6-6.8C209,6.8,212.2,9.1,212.2,14.5L212.2,14.5z M202,12.4h7c-0.1-1.7-1.5-3.1-3.4-3.1 C203.6,9.3,202.3,10.6,202,12.4"></path> <rect x="214.8" width="2.8" height="20.1"></rect> <path d="M228.7,11.4c0-1.4-1-2.1-2.7-2.1c-1.4,0-2.7,0.6-3.6,1.4L221,8.5c1.1-0.9,2.9-1.7,5.2-1.7c3.4,0,5.4,1.9,5.4,4.6v8.6h-2.9 v-1.3c-0.7,1.2-2.4,1.7-3.7,1.7c-3,0-4.7-1.7-4.7-4.1c0-2.5,1.8-4,4.7-4h2.8c0.7,0,0.9-0.3,0.9-0.8V11.4z M228.7,15.3v-1.1 c-0.3,0.2-0.7,0.3-1.4,0.3h-1.7c-1.5,0-2.3,0.7-2.3,1.7c0,1,0.7,1.9,2.3,1.9C227.2,18.2,228.7,17.3,228.7,15.3"></path> <path d="M146.5,50.4h-2.8V30.3h2.8v9.1c0.7-1.3,2.5-2.3,4.4-2.3c3.8,0,6.5,2.8,6.5,6.8c0,4-2.8,6.8-6.5,6.8c-1.9,0-3.6-0.9-4.3-2.2 V50.4z M146.5,43.9c0,2.5,1.6,4.4,4,4.4c2.4,0,4-1.9,4-4.4c0-2.5-1.7-4.3-4-4.3C148.1,39.6,146.5,41.4,146.5,43.9"></path> <path d="M167.5,40H166c-1.8,0-3,1.1-3,4v6.4h-2.8V37.5h2.8v2.1c0.5-1.4,1.8-2.3,3.6-2.3c0.3,0,0.7,0,1,0.1V40z"></path> <path d="M173.3,50.4h-2.9V39.8h-1.9v-2.4h4.8V50.4z M171.7,30.8c1.1,0,2,0.9,2,2c0,1.1-0.9,2-2,2c-1.1,0-2-0.9-2-2 C169.7,31.7,170.6,30.8,171.7,30.8"></path> <path d="M180.6,32.2v5.2h3v2.4h-3v7.3c0,0.9,0.7,1.1,1.3,1.1c1,0,1.7-0.1,1.7-0.1v2.4c0,0-1.4,0.1-2.5,0.1c-1.5,0-3.5-0.3-3.5-2.8 v-7.9h-2.1v-2.4h2.1v-5.2H180.6z"></path> <path d="M193.6,41.7c0-1.4-1-2.1-2.7-2.1c-1.4,0-2.7,0.6-3.6,1.4l-1.3-2.1c1.1-0.9,2.9-1.7,5.2-1.7c3.4,0,5.4,1.9,5.4,4.6v8.6h-2.9 V49c-0.7,1.2-2.4,1.7-3.7,1.7c-3,0-4.7-1.7-4.7-4.1c0-2.5,1.8-4,4.7-4h2.8c0.7,0,0.9-0.3,0.9-0.8V41.7z M193.6,45.7v-1.1 c-0.3,0.2-0.7,0.3-1.4,0.3h-1.7c-1.5,0-2.3,0.7-2.3,1.7c0,1,0.7,1.9,2.3,1.9C192.1,48.5,193.6,47.7,193.6,45.7 M190.3,30.3h3.6 l-2.5,4.8h-2.8L190.3,30.3z"></path> <path d="M202.7,38.2c0,0.4,0,0.6,0,0.9c1.1-1.3,2.6-2,4.2-2c3,0,4.8,1.9,4.8,4.8v8.4h-2.9v-8c0-1.8-1.1-2.7-2.6-2.7 c-1.2,0-2.4,0.6-3.5,1.9v8.8h-2.8V37.5h2.8V38.2z"></path> <path d="M218.6,50.4h-2.9V39.8h-1.9v-2.4h4.8V50.4z M217,30.8c1.1,0,2,0.9,2,2c0,1.1-0.9,2-2,2c-1.1,0-2-0.9-2-2 C215,31.7,215.9,30.8,217,30.8"></path> <path d="M228.2,48.2c1.5,0,2.6-0.7,3.3-1.9l2.5,1.3c-1,1.9-3.3,3.1-5.8,3.1c-3.8,0-6.9-2.8-6.9-6.8c0-4,3-6.8,6.9-6.8 c2.5,0,4.7,1.2,5.8,3.1l-2.5,1.3c-0.7-1.2-1.8-1.9-3.3-1.9c-2.4,0-4,1.9-4,4.3C224.2,46.4,225.9,48.2,228.2,48.2"></path> <path d="M243.9,41.7c0-1.4-1-2.1-2.7-2.1c-1.4,0-2.7,0.6-3.6,1.4l-1.3-2.1c1.1-0.9,2.9-1.7,5.2-1.7c3.4,0,5.4,1.9,5.4,4.6v8.6h-2.9 V49c-0.7,1.2-2.4,1.7-3.7,1.7c-3,0-4.7-1.7-4.7-4.1c0-2.5,1.8-4,4.7-4h2.8c0.7,0,0.9-0.3,0.9-0.8V41.7z M243.9,45.7v-1.1 c-0.3,0.2-0.7,0.3-1.4,0.3h-1.7c-1.5,0-2.3,0.7-2.3,1.7c0,1,0.7,1.9,2.3,1.9C242.4,48.5,243.9,47.7,243.9,45.7"></path> <path d="M266.3,48.5c-0.7,1.3-2.4,2.2-4.3,2.2c-3.8,0-6.5-2.9-6.5-6.8c0-4,2.7-6.8,6.5-6.8c1.9,0,3.7,1,4.4,2.3c0-0.9,0-2,0-3v-6.1 h2.9v20.1h-2.9V48.5z M258.4,43.9c0,2.5,1.6,4.4,4,4.4c2.4,0,4-1.9,4-4.4c0-2.5-1.7-4.3-4-4.3C260.1,39.6,258.4,41.4,258.4,43.9"></path> <path d="M285.2,44.8H275c0.2,2,1.6,3.4,3.6,3.4c1.2,0,2.4-0.5,3-1.5l3.2,0.1c-1.1,2.6-3.5,3.9-6.3,3.9c-3.8,0-6.7-2.9-6.7-6.8 c0-4,2.8-6.8,6.6-6.8C282,37.1,285.2,39.4,285.2,44.8L285.2,44.8z M275,42.7h7c-0.1-1.7-1.5-3.1-3.4-3.1 C276.7,39.6,275.3,40.9,275,42.7"></path> <path d="M151,72c0-1.4-1-2.1-2.7-2.1c-1.4,0-2.7,0.6-3.6,1.4l-1.3-2.1c1.1-0.9,2.9-1.7,5.2-1.7c3.4,0,5.4,1.9,5.4,4.6v8.6H151v-1.3 c-0.7,1.2-2.4,1.7-3.7,1.7c-3,0-4.7-1.7-4.7-4.1c0-2.5,1.8-4,4.7-4h2.8c0.7,0,0.9-0.3,0.9-0.8V72z M151,76v-1.1 c-0.3,0.2-0.7,0.3-1.4,0.3H148c-1.5,0-2.3,0.7-2.3,1.7c0,1,0.7,1.9,2.3,1.9C149.6,78.8,151,78,151,76"></path> <path d="M164.8,70.3h-1.5c-1.8,0-3,1.1-3,4v6.4h-2.8V67.8h2.8v2.1c0.5-1.4,1.8-2.3,3.6-2.3c0.3,0,0.7,0,1,0.1V70.3z"></path> <path d="M170.7,62.5v5.2h3v2.4h-3v7.3c0,0.9,0.7,1.1,1.3,1.1c1,0,1.7-0.1,1.7-0.1v2.4c0,0-1.4,0.1-2.5,0.1c-1.5,0-3.5-0.3-3.5-2.8 v-7.9h-2.1v-2.4h2.1v-5.2H170.7z"></path> <path d="M188.8,75.1h-10.2c0.2,2,1.6,3.4,3.6,3.4c1.2,0,2.4-0.5,3-1.5l3.2,0.1c-1.1,2.6-3.5,3.9-6.3,3.9c-3.8,0-6.7-2.9-6.7-6.8 c0-4,2.8-6.8,6.6-6.8C185.6,67.4,188.8,69.7,188.8,75.1L188.8,75.1z M178.6,73h7c-0.1-1.7-1.5-3.1-3.4-3.1 C180.3,69.9,178.9,71.2,178.6,73"></path> <path d="M198.7,71.3c-1-0.9-2.4-1.4-3.4-1.4c-1.1,0-1.7,0.6-1.7,1.2c0,0.7,0.3,1.1,1.2,1.4l2.2,0.8c2.4,0.8,3.4,2.2,3.4,3.8 c0,2.1-1.6,4.1-4.8,4.1c-2.1,0-4.2-0.9-5.4-2l1.7-2.2c1,1,2.5,1.7,3.7,1.7c1.1,0,1.9-0.5,1.9-1.3c0-0.8-0.4-1.2-1.8-1.7l-2.1-0.7 c-1.8-0.6-2.8-2-2.8-3.6c0-1.9,1.6-3.8,4.7-3.8c1.5,0,3.6,0.6,4.9,1.9L198.7,71.3z"></path> <path d="M214.2,78.5c1.5,0,2.6-0.7,3.3-1.9l2.5,1.3c-1,1.9-3.3,3.1-5.8,3.1c-3.8,0-6.9-2.8-6.9-6.8c0-4,3-6.8,6.9-6.8 c2.5,0,4.7,1.2,5.8,3.1l-2.5,1.3c-0.7-1.2-1.8-1.9-3.3-1.9c-2.4,0-4,1.9-4,4.3C210.3,76.7,211.9,78.5,214.2,78.5"></path> <path d="M229.9,70.3h-1.5c-1.8,0-3,1.1-3,4v6.4h-2.8V67.8h2.8v2.1c0.5-1.4,1.8-2.3,3.6-2.3c0.3,0,0.7,0,1,0.1V70.3z"></path> <path d="M244.3,75.1h-10.2c0.2,2,1.6,3.4,3.6,3.4c1.2,0,2.4-0.5,3-1.5l3.2,0.1c-1.1,2.6-3.5,3.9-6.3,3.9c-3.8,0-6.7-2.9-6.7-6.8 c0-4,2.8-6.8,6.6-6.8C241.2,67.4,244.3,69.7,244.3,75.1L244.3,75.1z M234.1,73h7c-0.1-1.7-1.5-3.1-3.4-3.1 C235.8,69.9,234.5,71.2,234.1,73"></path> <path d="M254.2,72c0-1.4-1-2.1-2.7-2.1c-1.4,0-2.7,0.6-3.6,1.4l-1.3-2.1c1.1-0.9,2.9-1.7,5.2-1.7c3.4,0,5.4,1.9,5.4,4.6v8.6h-2.9 v-1.3c-0.7,1.2-2.4,1.7-3.7,1.7c-3,0-4.7-1.7-4.7-4.1c0-2.5,1.8-4,4.7-4h2.8c0.7,0,0.9-0.3,0.9-0.8V72z M254.2,76v-1.1 c-0.3,0.2-0.7,0.3-1.4,0.3h-1.7c-1.5,0-2.3,0.7-2.3,1.7c0,1,0.7,1.9,2.3,1.9C252.7,78.8,254.2,78,254.2,76"></path> <path d="M264.2,62.5v5.2h3v2.4h-3v7.3c0,0.9,0.7,1.1,1.3,1.1c1,0,1.7-0.1,1.7-0.1v2.4c0,0-1.4,0.1-2.5,0.1c-1.5,0-3.5-0.3-3.5-2.8 v-7.9h-2.1v-2.4h2.1v-5.2H264.2z"></path> <path d="M273.3,80.7h-2.9V70.1h-1.9v-2.4h4.8V80.7z M271.7,61.1c1.1,0,2,0.9,2,2s-0.9,2-2,2c-1.1,0-2-0.9-2-2 S270.6,61.1,271.7,61.1"></path> <polygon points="282.1,78 285.6,67.8 288.6,67.8 283.9,80.7 280.3,80.7 275.7,67.8 278.9,67.8 "></polygon> <path d="M297.9,72c0-1.4-1-2.1-2.7-2.1c-1.4,0-2.7,0.6-3.6,1.4l-1.3-2.1c1.1-0.9,2.9-1.7,5.2-1.7c3.4,0,5.4,1.9,5.4,4.6v8.6h-2.9 v-1.3c-0.7,1.2-2.4,1.7-3.7,1.7c-3,0-4.7-1.7-4.7-4.1c0-2.5,1.8-4,4.7-4h2.8c0.7,0,0.9-0.3,0.9-0.8V72z M297.9,76v-1.1 c-0.3,0.2-0.7,0.3-1.4,0.3h-1.7c-1.5,0-2.3,0.7-2.3,1.7c0,1,0.7,1.9,2.3,1.9C296.4,78.8,297.9,78,297.9,76"></path> <path d="M311.6,71.3c-1-0.9-2.4-1.4-3.4-1.4c-1.1,0-1.7,0.6-1.7,1.2c0,0.7,0.3,1.1,1.2,1.4l2.2,0.8c2.4,0.8,3.4,2.2,3.4,3.8 c0,2.1-1.6,4.1-4.8,4.1c-2.1,0-4.2-0.9-5.4-2l1.7-2.2c1,1,2.5,1.7,3.7,1.7c1.1,0,1.9-0.5,1.9-1.3c0-0.8-0.4-1.2-1.8-1.7l-2.2-0.7 c-1.8-0.6-2.8-2-2.8-3.6c0-1.9,1.6-3.8,4.7-3.8c1.5,0,3.6,0.6,4.9,1.9L311.6,71.3z"></path> <path d="M147.6,111H147l-4.6-12.9h3.2l3.2,10.2l3.4-10.2h3.1l-5.5,15c-0.7,1.9-1.8,2.9-4.1,2.9h-2v-2.4h1.6c1,0,1.5-0.3,1.9-1.5 L147.6,111z"></path> <path d="M166.7,92.9v5.2h3v2.4h-3v7.3c0,0.9,0.7,1.1,1.3,1.1c1,0,1.8-0.1,1.8-0.1v2.4c0,0-1.4,0.1-2.5,0.1c-1.5,0-3.5-0.3-3.5-2.8 v-7.9h-2.1v-2.4h2.1v-5.2H166.7z"></path> <path d="M184.7,105.4h-10.2c0.2,2,1.6,3.4,3.6,3.4c1.2,0,2.4-0.5,3-1.5l3.2,0.1c-1.1,2.6-3.5,3.9-6.3,3.9c-3.8,0-6.7-2.9-6.7-6.8 s2.8-6.8,6.6-6.8C181.6,97.7,184.7,100.1,184.7,105.4L184.7,105.4z M174.6,103.3h7c-0.1-1.7-1.5-3.1-3.4-3.1 C176.2,100.2,174.9,101.5,174.6,103.3"></path> <path d="M193.3,108.9c1.5,0,2.6-0.7,3.3-1.9l2.5,1.3c-1,1.9-3.3,3.1-5.8,3.1c-3.8,0-6.9-2.8-6.9-6.8c0-4,3-6.8,6.9-6.8 c2.5,0,4.7,1.2,5.8,3.1l-2.5,1.3c-0.7-1.2-1.8-1.9-3.3-1.9c-2.4,0-4,1.9-4,4.3C189.3,107,190.9,108.9,193.3,108.9"></path> <path d="M204.4,98.8c0,0.4,0,0.6,0,0.9c1.1-1.3,2.6-1.9,4.2-1.9c3,0,4.8,1.9,4.8,4.8v8.4h-2.9v-8c0-1.8-1.1-2.7-2.6-2.7 c-1.2,0-2.4,0.6-3.5,1.9v8.8h-2.8V98.1h2.8V98.8z"></path> <path d="M222.8,97.7c3.8,0,6.9,2.8,6.9,6.8s-3.1,6.8-6.9,6.8c-3.8,0-6.9-2.9-6.9-6.8S219,97.7,222.8,97.7 M222.8,100.2 c-2.4,0-4,1.8-4,4.3c0,2.5,1.6,4.3,4,4.3c2.4,0,4-1.9,4-4.3C226.8,102.1,225.2,100.2,222.8,100.2"></path> <rect x="232.6" y="90.9" width="2.8" height="20.1"></rect> <path d="M245.1,97.7c3.8,0,6.9,2.8,6.9,6.8s-3.1,6.8-6.9,6.8c-3.8,0-6.9-2.9-6.9-6.8S241.3,97.7,245.1,97.7 M245.1,100.2 c-2.4,0-4,1.8-4,4.3c0,2.5,1.6,4.3,4,4.3c2.4,0,4-1.9,4-4.3C249.1,102.1,247.4,100.2,245.1,100.2"></path> <path d="M267.5,98.1v14c0,2-1,4-4.1,4h-5.4v-2.4h5c0.8,0,1.6-0.2,1.6-1.4v-3.2c-0.7,1.3-2.4,2.2-4.3,2.2c-3.7,0-6.5-2.8-6.5-6.8 c0-4,2.7-6.8,6.5-6.8c1.9,0,3.7,1,4.4,2.3c0-0.3,0-0.6,0-1v-0.9H267.5z M260.8,108.9c2.4,0,4-1.9,4-4.3c0-2.5-1.6-4.4-4-4.4 c-2.4,0-4,1.9-4,4.4C256.8,107,258.4,108.9,260.8,108.9"></path> <path d="M274.6,111h-2.8v-10.6h-2v-2.4h4.8V111z M272,90.9h3.6l-2.5,4.8h-2.8L272,90.9z"></path> <path d="M285.6,102.3c0-1.4-1-2.1-2.7-2.1c-1.4,0-2.7,0.6-3.6,1.4l-1.3-2.1c1.1-0.9,2.9-1.7,5.2-1.7c3.4,0,5.4,1.9,5.4,4.6v8.6 h-2.9v-1.3c-0.7,1.2-2.4,1.7-3.7,1.7c-3,0-4.7-1.7-4.7-4.1c0-2.5,1.8-4,4.7-4h2.8c0.7,0,0.9-0.3,0.9-0.8V102.3z M285.6,106.3v-1.1 c-0.3,0.2-0.7,0.3-1.4,0.3h-1.7c-1.5,0-2.3,0.7-2.3,1.7c0,1,0.7,1.9,2.3,1.9C284.1,109.1,285.6,108.3,285.6,106.3"></path> </g> </svg> 